<svg id="visual" viewBox="0 0 1920 300" width="1920" height="300" xmlns="http://www.w3.org/2000/svg" xmlns:xlink="http://www.w3.org/1999/xlink" version="1.1"><path d="M0 155L26.7 158.2C53.3 161.3 106.7 167.7 160 165.2C213.3 162.7 266.7 151.3 320 150.8C373.3 150.3 426.7 160.7 480 162C533.3 163.3 586.7 155.7 640 148.2C693.3 140.7 746.7 133.3 800 131C853.3 128.7 906.7 131.3 960 137C1013.3 142.7 1066.7 151.3 1120 149.3C1173.3 147.3 1226.7 134.7 1280 130.8C1333.3 127 1386.7 132 1440 136.8C1493.3 141.7 1546.7 146.3 1600 149.2C1653.3 152 1706.7 153 1760 156.2C1813.3 159.3 1866.7 164.7 1893.3 167.3L1920 170" fill="none" stroke-linecap="round" stroke-linejoin="miter" stroke="#10B981" stroke-width="99"></path></svg>