<svg id="visual" viewBox="0 0 1920 300" width="1920" height="300" xmlns="http://www.w3.org/2000/svg" xmlns:xlink="http://www.w3.org/1999/xlink" version="1.1"><path d="M0 129L35.5 132C71 135 142 141 213.2 145C284.3 149 355.7 151 426.8 149.2C498 147.3 569 141.7 640 143.5C711 145.3 782 154.7 853.2 156C924.3 157.3 995.7 150.7 1066.8 149.7C1138 148.7 1209 153.3 1280 157.3C1351 161.3 1422 164.7 1493.2 159.5C1564.3 154.3 1635.7 140.7 1706.8 138.8C1778 137 1849 147 1884.5 152L1920 157" fill="none" stroke-linecap="round" stroke-linejoin="miter" stroke="#10B981" stroke-width="99"></path></svg>