<svg id="visual" viewBox="0 0 1920 300" width="1920" height="300" xmlns="http://www.w3.org/2000/svg" xmlns:xlink="http://www.w3.org/1999/xlink" version="1.1"><path d="M0 161L26.7 158.2C53.3 155.3 106.7 149.7 160 147.2C213.3 144.7 266.7 145.3 320 144.7C373.3 144 426.7 142 480 145.7C533.3 149.3 586.7 158.7 640 156.8C693.3 155 746.7 142 800 134.3C853.3 126.7 906.7 124.3 960 125C1013.3 125.7 1066.7 129.3 1120 134.8C1173.3 140.3 1226.7 147.7 1280 152.5C1333.3 157.3 1386.7 159.7 1440 158.2C1493.3 156.7 1546.7 151.3 1600 151.3C1653.3 151.3 1706.7 156.7 1760 160.2C1813.3 163.7 1866.7 165.3 1893.3 166.2L1920 167" fill="none" stroke-linecap="round" stroke-linejoin="miter" stroke="#10B981" stroke-width="99"></path></svg>