<svg id="visual" viewBox="0 0 1920 400" width="1920" height="400" xmlns="http://www.w3.org/2000/svg" xmlns:xlink="http://www.w3.org/1999/xlink" version="1.1"><path d="M0 61L24.7 58.7C49.3 56.3 98.7 51.7 147.8 49C197 46.3 246 45.7 295.2 45.5C344.3 45.3 393.7 45.7 443 44.8C492.3 44 541.7 42 590.8 43.2C640 44.3 689 48.7 738.2 52.3C787.3 56 836.7 59 886 59.2C935.3 59.3 984.7 56.7 1034 58C1083.3 59.3 1132.7 64.7 1181.8 66.3C1231 68 1280 66 1329.2 60C1378.3 54 1427.7 44 1477 44.8C1526.3 45.7 1575.7 57.3 1624.8 60.7C1674 64 1723 59 1772.2 57.7C1821.3 56.3 1870.7 58.7 1895.3 59.8L1920 61L1920 401L1895.3 401C1870.7 401 1821.3 401 1772.2 401C1723 401 1674 401 1624.8 401C1575.7 401 1526.3 401 1477 401C1427.7 401 1378.3 401 1329.2 401C1280 401 1231 401 1181.8 401C1132.7 401 1083.3 401 1034 401C984.7 401 935.3 401 886 401C836.7 401 787.3 401 738.2 401C689 401 640 401 590.8 401C541.7 401 492.3 401 443 401C393.7 401 344.3 401 295.2 401C246 401 197 401 147.8 401C98.7 401 49.3 401 24.7 401L0 401Z" fill="#10b981"></path><path d="M0 105L24.7 104.3C49.3 103.7 98.7 102.3 147.8 107.5C197 112.7 246 124.3 295.2 123.8C344.3 123.3 393.7 110.7 443 110.7C492.3 110.7 541.7 123.3 590.8 129.3C640 135.3 689 134.7 738.2 133C787.3 131.3 836.7 128.7 886 128.7C935.3 128.7 984.7 131.3 1034 127.5C1083.3 123.7 1132.7 113.3 1181.8 109C1231 104.7 1280 106.3 1329.2 110.3C1378.3 114.3 1427.7 120.7 1477 120.8C1526.3 121 1575.7 115 1624.8 113.5C1674 112 1723 115 1772.2 114C1821.3 113 1870.7 108 1895.3 105.5L1920 103L1920 401L1895.3 401C1870.7 401 1821.3 401 1772.2 401C1723 401 1674 401 1624.8 401C1575.7 401 1526.3 401 1477 401C1427.7 401 1378.3 401 1329.2 401C1280 401 1231 401 1181.8 401C1132.7 401 1083.3 401 1034 401C984.7 401 935.3 401 886 401C836.7 401 787.3 401 738.2 401C689 401 640 401 590.8 401C541.7 401 492.3 401 443 401C393.7 401 344.3 401 295.2 401C246 401 197 401 147.8 401C98.7 401 49.3 401 24.7 401L0 401Z" fill="#00c1ae"></path><path d="M0 161L24.7 160.7C49.3 160.3 98.7 159.7 147.8 161.7C197 163.7 246 168.3 295.2 170.5C344.3 172.7 393.7 172.3 443 174.8C492.3 177.3 541.7 182.7 590.8 186.2C640 189.7 689 191.3 738.2 185.3C787.3 179.3 836.7 165.7 886 162.7C935.3 159.7 984.7 167.3 1034 172.7C1083.3 178 1132.7 181 1181.8 182.3C1231 183.7 1280 183.3 1329.2 177.3C1378.3 171.3 1427.7 159.7 1477 157.7C1526.3 155.7 1575.7 163.3 1624.8 168.8C1674 174.3 1723 177.7 1772.2 177.5C1821.3 177.3 1870.7 173.7 1895.3 171.8L1920 170L1920 401L1895.3 401C1870.7 401 1821.3 401 1772.2 401C1723 401 1674 401 1624.8 401C1575.7 401 1526.3 401 1477 401C1427.7 401 1378.3 401 1329.2 401C1280 401 1231 401 1181.8 401C1132.7 401 1083.3 401 1034 401C984.7 401 935.3 401 886 401C836.7 401 787.3 401 738.2 401C689 401 640 401 590.8 401C541.7 401 492.3 401 443 401C393.7 401 344.3 401 295.2 401C246 401 197 401 147.8 401C98.7 401 49.3 401 24.7 401L0 401Z" fill="#4cc7ce"></path><path d="M0 248L24.7 241.2C49.3 234.3 98.7 220.7 147.8 216.7C197 212.7 246 218.3 295.2 223.8C344.3 229.3 393.7 234.7 443 234.3C492.3 234 541.7 228 590.8 227.5C640 227 689 232 738.2 235.8C787.3 239.7 836.7 242.3 886 242.3C935.3 242.3 984.7 239.7 1034 239.5C1083.3 239.3 1132.7 241.7 1181.8 243C1231 244.3 1280 244.7 1329.2 245.2C1378.3 245.7 1427.7 246.3 1477 240.2C1526.3 234 1575.7 221 1624.8 216.7C1674 212.3 1723 216.7 1772.2 222.8C1821.3 229 1870.7 237 1895.3 241L1920 245L1920 401L1895.3 401C1870.7 401 1821.3 401 1772.2 401C1723 401 1674 401 1624.8 401C1575.7 401 1526.3 401 1477 401C1427.7 401 1378.3 401 1329.2 401C1280 401 1231 401 1181.8 401C1132.7 401 1083.3 401 1034 401C984.7 401 935.3 401 886 401C836.7 401 787.3 401 738.2 401C689 401 640 401 590.8 401C541.7 401 492.3 401 443 401C393.7 401 344.3 401 295.2 401C246 401 197 401 147.8 401C98.7 401 49.3 401 24.7 401L0 401Z" fill="#84cbde"></path><path d="M0 293L24.7 292.5C49.3 292 98.7 291 147.8 293.2C197 295.3 246 300.7 295.2 300.2C344.3 299.7 393.7 293.3 443 287.5C492.3 281.7 541.7 276.3 590.8 279.2C640 282 689 293 738.2 297C787.3 301 836.7 298 886 291.7C935.3 285.3 984.7 275.7 1034 276C1083.3 276.3 1132.7 286.7 1181.8 292.2C1231 297.7 1280 298.3 1329.2 295C1378.3 291.7 1427.7 284.3 1477 280.2C1526.3 276 1575.7 275 1624.8 278.7C1674 282.3 1723 290.7 1772.2 289.7C1821.3 288.7 1870.7 278.3 1895.3 273.2L1920 268L1920 401L1895.3 401C1870.7 401 1821.3 401 1772.2 401C1723 401 1674 401 1624.8 401C1575.7 401 1526.3 401 1477 401C1427.7 401 1378.3 401 1329.2 401C1280 401 1231 401 1181.8 401C1132.7 401 1083.3 401 1034 401C984.7 401 935.3 401 886 401C836.7 401 787.3 401 738.2 401C689 401 640 401 590.8 401C541.7 401 492.3 401 443 401C393.7 401 344.3 401 295.2 401C246 401 197 401 147.8 401C98.7 401 49.3 401 24.7 401L0 401Z" fill="#b1cfe1"></path><path d="M0 343L24.7 345.2C49.3 347.3 98.7 351.7 147.8 355C197 358.3 246 360.7 295.2 362.2C344.3 363.7 393.7 364.3 443 358.8C492.3 353.3 541.7 341.7 590.8 335.2C640 328.7 689 327.3 738.2 328.7C787.3 330 836.7 334 886 336.8C935.3 339.7 984.7 341.3 1034 340.7C1083.3 340 1132.7 337 1181.8 339.7C1231 342.3 1280 350.7 1329.2 355.3C1378.3 360 1427.7 361 1477 358.5C1526.3 356 1575.7 350 1624.8 347.3C1674 344.7 1723 345.3 1772.2 348.3C1821.3 351.3 1870.7 356.7 1895.3 359.3L1920 362L1920 401L1895.3 401C1870.7 401 1821.3 401 1772.2 401C1723 401 1674 401 1624.8 401C1575.7 401 1526.3 401 1477 401C1427.7 401 1378.3 401 1329.2 401C1280 401 1231 401 1181.8 401C1132.7 401 1083.3 401 1034 401C984.7 401 935.3 401 886 401C836.7 401 787.3 401 738.2 401C689 401 640 401 590.8 401C541.7 401 492.3 401 443 401C393.7 401 344.3 401 295.2 401C246 401 197 401 147.8 401C98.7 401 49.3 401 24.7 401L0 401Z" fill="#d1d5db"></path></svg>